<?xml version="1.0" encoding="utf-8"?>
<!DOCTYPE svg
  PUBLIC '-//W3C//DTD SVG 1.0//EN'
  'http://www.w3.org/TR/2001/REC-SVG-20010904/DTD/svg10.dtd'>
<svg width="1100" height="760" preserveAspectRatio="xMinYMin meet" viewBox="0 0 1100 760" xmlns="http://www.w3.org/2000/svg" version="1.0" fill-rule="evenodd" xmlns:xlink="http://www.w3.org/1999/xlink">
	<title>...</title>
	<desc>...</desc>
	<clipPath id="clip">
		<rect x="0" y="0" width="1100" height="760"/>
	</clipPath>
	<g id="group" transform="scale(1,-1) translate(0,-760)" style="clip-path: url(#clip)">
		<g transform="">
			<rect x="0" y="0" width="1100" height="760" style="stroke: none; stroke-linecap: butt; stroke-width: 1; fill: rgb(100%,100%,100%); fill-rule: evenodd;"/>
			<text x="42" y="710" style="font-family: Helvetica-Bold; font-size: 29px;fill: rgb(9%,19%,30%); stroke:none;" transform="translate(0,1420) scale(1,-1)">Overall ranking</text>
			<text x="42" y="672" style="font-family: Helvetica; font-size: 15px;fill: rgb(37%,43%,50%); stroke:none;" transform="translate(0,1344) scale(1,-1)">Mean accuracy across 60 common exercises | ranked top to bottom: best -&gt; worst</text>
			<text x="42" y="642" style="font-family: Helvetica-Bold; font-size: 11.5px;fill: rgb(9%,19%,30%); stroke:none;" transform="translate(0,1284) scale(1,-1)">HOW TO READ</text>
			<path d="M 170,646 L 288,646 Z" style="stroke: rgb(25%,34%,41%); stroke-linecap: butt; stroke-width: 4.2;"/>
			<path d="M 170,638 L 170,654 Z" style="stroke: rgb(25%,34%,41%); stroke-linecap: butt; stroke-width: 2.8;"/>
			<path d="M 288,638 L 288,654 Z" style="stroke: rgb(25%,34%,41%); stroke-linecap: butt; stroke-width: 2.8;"/>
			<circle cx="231" cy="646" r="8" style="stroke: rgb(9%,14%,19%); stroke-linecap: butt; stroke-width: 0.8; fill: rgb(3%,49%,44%); fill-rule: evenodd;"/>
			<text x="307" y="641" style="font-family: Helvetica-Bold; font-size: 13px;fill: rgb(9%,14%,19%); stroke:none;" transform="translate(0,1282) scale(1,-1)">Dot = mean accuracy; horizontal line with end caps = 95% confidence interval</text>
			<text x="42" y="610" style="font-family: Helvetica-Bold; font-size: 12px;fill: rgb(37%,43%,50%); stroke:none;" transform="translate(0,1220) scale(1,-1)">RANK</text>
			<text x="88" y="610" style="font-family: Helvetica-Bold; font-size: 12px;fill: rgb(37%,43%,50%); stroke:none;" transform="translate(0,1220) scale(1,-1)">MODEL</text>
			<text x="909.672" y="610" style="font-family: Helvetica-Bold; font-size: 12px;fill: rgb(37%,43%,50%); stroke:none;" transform="translate(0,1220) scale(1,-1)">MEAN</text>
			<text x="1030.652" y="610" style="font-family: Helvetica-Bold; font-size: 12px;fill: rgb(37%,43%,50%); stroke:none;" transform="translate(0,1220) scale(1,-1)">95% CI</text>
			<path d="M 42,600 L 1070,600 Z" style="stroke: rgb(84%,87%,90%); stroke-linecap: butt; stroke-width: 1.2;"/>
			<path d="M 365,105 L 365,594 Z" style="stroke: rgb(71%,76%,80%); stroke-linecap: butt; stroke-width: 1.35;"/>
			<path d="M 365,97 L 365,107 Z" style="stroke: rgb(9%,19%,30%); stroke-linecap: butt; stroke-width: 2;"/>
			<text x="365.0" y="78" style="font-family: Helvetica-Bold; font-size: 14px;fill: rgb(9%,19%,30%); stroke:none;" transform="translate(0,156) scale(1,-1)">55%</text>
			<path d="M 419.444444,105 L 419.444444,594 Z" style="stroke: rgb(84%,87%,90%); stroke-linecap: butt; stroke-width: 0.9;"/>
			<path d="M 419.444444,97 L 419.444444,107 Z" style="stroke: rgb(9%,19%,30%); stroke-linecap: butt; stroke-width: 2;"/>
			<text x="405.43744444444445" y="78" style="font-family: Helvetica-Bold; font-size: 14px;fill: rgb(9%,19%,30%); stroke:none;" transform="translate(0,156) scale(1,-1)">60%</text>
			<path d="M 528.333333,105 L 528.333333,594 Z" style="stroke: rgb(84%,87%,90%); stroke-linecap: butt; stroke-width: 0.9;"/>
			<path d="M 528.333333,97 L 528.333333,107 Z" style="stroke: rgb(9%,19%,30%); stroke-linecap: butt; stroke-width: 2;"/>
			<text x="514.3263333333333" y="78" style="font-family: Helvetica-Bold; font-size: 14px;fill: rgb(9%,19%,30%); stroke:none;" transform="translate(0,156) scale(1,-1)">70%</text>
			<path d="M 637.222222,105 L 637.222222,594 Z" style="stroke: rgb(84%,87%,90%); stroke-linecap: butt; stroke-width: 0.9;"/>
			<path d="M 637.222222,97 L 637.222222,107 Z" style="stroke: rgb(9%,19%,30%); stroke-linecap: butt; stroke-width: 2;"/>
			<text x="623.2152222222222" y="78" style="font-family: Helvetica-Bold; font-size: 14px;fill: rgb(9%,19%,30%); stroke:none;" transform="translate(0,156) scale(1,-1)">80%</text>
			<path d="M 746.111111,105 L 746.111111,594 Z" style="stroke: rgb(84%,87%,90%); stroke-linecap: butt; stroke-width: 0.9;"/>
			<path d="M 746.111111,97 L 746.111111,107 Z" style="stroke: rgb(9%,19%,30%); stroke-linecap: butt; stroke-width: 2;"/>
			<text x="732.1041111111111" y="78" style="font-family: Helvetica-Bold; font-size: 14px;fill: rgb(9%,19%,30%); stroke:none;" transform="translate(0,156) scale(1,-1)">90%</text>
			<path d="M 855,105 L 855,594 Z" style="stroke: rgb(71%,76%,80%); stroke-linecap: butt; stroke-width: 1.35;"/>
			<path d="M 855,97 L 855,107 Z" style="stroke: rgb(9%,19%,30%); stroke-linecap: butt; stroke-width: 2;"/>
			<text x="819.202" y="78" style="font-family: Helvetica-Bold; font-size: 14px;fill: rgb(9%,19%,30%); stroke:none;" transform="translate(0,156) scale(1,-1)">100%</text>
			<path d="M 365,105 L 855,105 Z" style="stroke: rgb(9%,19%,30%); stroke-linecap: butt; stroke-width: 2.2;"/>
			<text x="42" y="573.0" style="font-family: Helvetica-Bold; font-size: 13px;fill: rgb(37%,43%,50%); stroke:none;" transform="translate(0,1146) scale(1,-1)">01</text>
			<rect x="73" y="568.0" width="4" height="21.0" style="stroke: none; stroke-linecap: butt; stroke-width: 1; fill: rgb(3%,49%,44%); fill-rule: evenodd;"/>
			<text x="88" y="576.0" style="font-family: Helvetica-Bold; font-size: 14px;fill: rgb(9%,14%,19%); stroke:none;" transform="translate(0,1152) scale(1,-1)">GPT-5.6 Sol</text>
			<text x="88" y="564.0" style="font-family: Helvetica; font-size: 8.5px;fill: rgb(37%,43%,50%); stroke:none;" transform="translate(0,1128) scale(1,-1)">OPENAI</text>
			<path d="M 365,578 L 855,578 Z" style="stroke: rgb(96%,96%,97%); stroke-linecap: butt; stroke-width: 5;"/>
			<path d="M 822.818279,578 L 853.511533,578 Z" style="stroke: rgb(25%,34%,41%); stroke-linecap: butt; stroke-width: 4.2;"/>
			<path d="M 822.818279,570 L 822.818279,586 Z" style="stroke: rgb(25%,34%,41%); stroke-linecap: butt; stroke-width: 2.8;"/>
			<path d="M 853.511533,570 L 853.511533,586 Z" style="stroke: rgb(25%,34%,41%); stroke-linecap: butt; stroke-width: 2.8;"/>
			<circle cx="841.0466211666667" cy="578.0" r="9" style="stroke: rgb(100%,100%,100%); stroke-linecap: butt; stroke-width: 4; fill: rgb(100%,100%,100%); fill-rule: evenodd;"/>
			<circle cx="841.0466211666667" cy="578.0" r="7" style="stroke: rgb(9%,14%,19%); stroke-linecap: butt; stroke-width: 0.9; fill: rgb(3%,49%,44%); fill-rule: evenodd;"/>
			<text x="909.972" y="573.0" style="font-family: Helvetica-Bold; font-size: 14px;fill: rgb(9%,14%,19%); stroke:none;" transform="translate(0,1146) scale(1,-1)">98.72</text>
			<text x="999.6659999999999" y="573.0" style="font-family: Helvetica; font-size: 11.5px;fill: rgb(37%,43%,50%); stroke:none;" transform="translate(0,1146) scale(1,-1)">[97.04, 99.86]</text>
			<rect x="36" y="536.3125" width="1040" height="27.125" style="stroke: none; stroke-linecap: butt; stroke-width: 1; fill: rgb(98%,98%,98%); fill-rule: evenodd;"/>
			<text x="42" y="544.875" style="font-family: Helvetica-Bold; font-size: 13px;fill: rgb(37%,43%,50%); stroke:none;" transform="translate(0,1089) scale(1,-1)">02</text>
			<rect x="73" y="539.875" width="4" height="21.0" style="stroke: none; stroke-linecap: butt; stroke-width: 1; fill: rgb(65%,32%,0%); fill-rule: evenodd;"/>
			<text x="88" y="547.875" style="font-family: Helvetica-Bold; font-size: 14px;fill: rgb(9%,14%,19%); stroke:none;" transform="translate(0,1095) scale(1,-1)">Claude Fable 5</text>
			<text x="88" y="535.875" style="font-family: Helvetica; font-size: 8.5px;fill: rgb(37%,43%,50%); stroke:none;" transform="translate(0,1071) scale(1,-1)">ANTHROPIC</text>
			<path d="M 365,549.875 L 855,549.875 Z" style="stroke: rgb(96%,96%,97%); stroke-linecap: butt; stroke-width: 5;"/>
			<path d="M 813.094493,549.875 L 848.285185,549.875 Z" style="stroke: rgb(25%,34%,41%); stroke-linecap: butt; stroke-width: 4.2;"/>
			<path d="M 813.094493,541.875 L 813.094493,557.875 Z" style="stroke: rgb(25%,34%,41%); stroke-linecap: butt; stroke-width: 2.8;"/>
			<path d="M 848.285185,541.875 L 848.285185,557.875 Z" style="stroke: rgb(25%,34%,41%); stroke-linecap: butt; stroke-width: 2.8;"/>
			<circle cx="833.1529727000001" cy="549.875" r="9" style="stroke: rgb(100%,100%,100%); stroke-linecap: butt; stroke-width: 4; fill: rgb(100%,100%,100%); fill-rule: evenodd;"/>
			<circle cx="833.1529727000001" cy="549.875" r="7" style="stroke: rgb(9%,14%,19%); stroke-linecap: butt; stroke-width: 0.9; fill: rgb(65%,32%,0%); fill-rule: evenodd;"/>
			<text x="909.972" y="544.875" style="font-family: Helvetica-Bold; font-size: 14px;fill: rgb(9%,14%,19%); stroke:none;" transform="translate(0,1089) scale(1,-1)">97.99</text>
			<text x="999.6659999999999" y="544.875" style="font-family: Helvetica; font-size: 11.5px;fill: rgb(37%,43%,50%); stroke:none;" transform="translate(0,1089) scale(1,-1)">[96.15, 99.38]</text>
			<text x="42" y="516.75" style="font-family: Helvetica-Bold; font-size: 13px;fill: rgb(37%,43%,50%); stroke:none;" transform="translate(0,1033) scale(1,-1)">03</text>
			<rect x="73" y="511.75" width="4" height="21.0" style="stroke: none; stroke-linecap: butt; stroke-width: 1; fill: rgb(35%,29%,80%); fill-rule: evenodd;"/>
			<text x="88" y="519.75" style="font-family: Helvetica-Bold; font-size: 14px;fill: rgb(9%,14%,19%); stroke:none;" transform="translate(0,1039) scale(1,-1)">DeepSeek V4 Flash</text>
			<text x="88" y="507.75" style="font-family: Helvetica; font-size: 8.5px;fill: rgb(37%,43%,50%); stroke:none;" transform="translate(0,1015) scale(1,-1)">DEEPSEEK</text>
			<path d="M 365,521.75 L 855,521.75 Z" style="stroke: rgb(96%,96%,97%); stroke-linecap: butt; stroke-width: 5;"/>
			<path d="M 796.869989,521.75 L 845.825753,521.75 Z" style="stroke: rgb(25%,34%,41%); stroke-linecap: butt; stroke-width: 4.2;"/>
			<path d="M 796.869989,513.75 L 796.869989,529.75 Z" style="stroke: rgb(25%,34%,41%); stroke-linecap: butt; stroke-width: 2.8;"/>
			<path d="M 845.825753,513.75 L 845.825753,529.75 Z" style="stroke: rgb(25%,34%,41%); stroke-linecap: butt; stroke-width: 2.8;"/>
			<circle cx="824.9146685777778" cy="521.75" r="9" style="stroke: rgb(100%,100%,100%); stroke-linecap: butt; stroke-width: 4; fill: rgb(100%,100%,100%); fill-rule: evenodd;"/>
			<circle cx="824.9146685777778" cy="521.75" r="7" style="stroke: rgb(9%,14%,19%); stroke-linecap: butt; stroke-width: 0.9; fill: rgb(35%,29%,80%); fill-rule: evenodd;"/>
			<text x="909.972" y="516.75" style="font-family: Helvetica-Bold; font-size: 14px;fill: rgb(9%,14%,19%); stroke:none;" transform="translate(0,1033) scale(1,-1)">97.24</text>
			<text x="999.6659999999999" y="516.75" style="font-family: Helvetica; font-size: 11.5px;fill: rgb(37%,43%,50%); stroke:none;" transform="translate(0,1033) scale(1,-1)">[94.66, 99.16]</text>
			<rect x="36" y="480.0625" width="1040" height="27.125" style="stroke: none; stroke-linecap: butt; stroke-width: 1; fill: rgb(98%,98%,98%); fill-rule: evenodd;"/>
			<text x="42" y="488.625" style="font-family: Helvetica-Bold; font-size: 13px;fill: rgb(37%,43%,50%); stroke:none;" transform="translate(0,977) scale(1,-1)">04</text>
			<rect x="73" y="483.625" width="4" height="21.0" style="stroke: none; stroke-linecap: butt; stroke-width: 1; fill: rgb(35%,29%,80%); fill-rule: evenodd;"/>
			<text x="88" y="491.625" style="font-family: Helvetica-Bold; font-size: 14px;fill: rgb(9%,14%,19%); stroke:none;" transform="translate(0,983) scale(1,-1)">DeepSeek V4.1 Flash</text>
			<text x="88" y="479.625" style="font-family: Helvetica; font-size: 8.5px;fill: rgb(37%,43%,50%); stroke:none;" transform="translate(0,959) scale(1,-1)">DEEPSEEK</text>
			<path d="M 365,493.625 L 855,493.625 Z" style="stroke: rgb(96%,96%,97%); stroke-linecap: butt; stroke-width: 5;"/>
			<path d="M 801.639191,493.625 L 841.763851,493.625 Z" style="stroke: rgb(25%,34%,41%); stroke-linecap: butt; stroke-width: 4.2;"/>
			<path d="M 801.639191,485.625 L 801.639191,501.625 Z" style="stroke: rgb(25%,34%,41%); stroke-linecap: butt; stroke-width: 2.8;"/>
			<path d="M 841.763851,485.625 L 841.763851,501.625 Z" style="stroke: rgb(25%,34%,41%); stroke-linecap: butt; stroke-width: 2.8;"/>
			<circle cx="824.8215399400001" cy="493.625" r="9" style="stroke: rgb(100%,100%,100%); stroke-linecap: butt; stroke-width: 4; fill: rgb(100%,100%,100%); fill-rule: evenodd;"/>
			<circle cx="824.8215399400001" cy="493.625" r="7" style="stroke: rgb(9%,14%,19%); stroke-linecap: butt; stroke-width: 0.9; fill: rgb(35%,29%,80%); fill-rule: evenodd;"/>
			<text x="909.972" y="488.625" style="font-family: Helvetica-Bold; font-size: 14px;fill: rgb(9%,14%,19%); stroke:none;" transform="translate(0,977) scale(1,-1)">97.23</text>
			<text x="999.6659999999999" y="488.625" style="font-family: Helvetica; font-size: 11.5px;fill: rgb(37%,43%,50%); stroke:none;" transform="translate(0,977) scale(1,-1)">[95.10, 98.78]</text>
			<text x="42" y="460.5" style="font-family: Helvetica-Bold; font-size: 13px;fill: rgb(37%,43%,50%); stroke:none;" transform="translate(0,921) scale(1,-1)">05</text>
			<rect x="73" y="455.5" width="4" height="21.0" style="stroke: none; stroke-linecap: butt; stroke-width: 1; fill: rgb(13%,38%,78%); fill-rule: evenodd;"/>
			<text x="88" y="463.5" style="font-family: Helvetica-Bold; font-size: 14px;fill: rgb(9%,14%,19%); stroke:none;" transform="translate(0,927) scale(1,-1)">Gemini 3.1 Pro Preview</text>
			<text x="88" y="451.5" style="font-family: Helvetica; font-size: 8.5px;fill: rgb(37%,43%,50%); stroke:none;" transform="translate(0,903) scale(1,-1)">GOOGLE</text>
			<path d="M 365,465.5 L 855,465.5 Z" style="stroke: rgb(96%,96%,97%); stroke-linecap: butt; stroke-width: 5;"/>
			<path d="M 801.770029,465.5 L 839.779455,465.5 Z" style="stroke: rgb(25%,34%,41%); stroke-linecap: butt; stroke-width: 4.2;"/>
			<path d="M 801.770029,457.5 L 801.770029,473.5 Z" style="stroke: rgb(25%,34%,41%); stroke-linecap: butt; stroke-width: 2.8;"/>
			<path d="M 839.779455,457.5 L 839.779455,473.5 Z" style="stroke: rgb(25%,34%,41%); stroke-linecap: butt; stroke-width: 2.8;"/>
			<circle cx="822.8507147511111" cy="465.5" r="9" style="stroke: rgb(100%,100%,100%); stroke-linecap: butt; stroke-width: 4; fill: rgb(100%,100%,100%); fill-rule: evenodd;"/>
			<circle cx="822.8507147511111" cy="465.5" r="7" style="stroke: rgb(9%,14%,19%); stroke-linecap: butt; stroke-width: 0.9; fill: rgb(13%,38%,78%); fill-rule: evenodd;"/>
			<text x="909.972" y="460.5" style="font-family: Helvetica-Bold; font-size: 14px;fill: rgb(9%,14%,19%); stroke:none;" transform="translate(0,921) scale(1,-1)">97.05</text>
			<text x="999.6659999999999" y="460.5" style="font-family: Helvetica; font-size: 11.5px;fill: rgb(37%,43%,50%); stroke:none;" transform="translate(0,921) scale(1,-1)">[95.11, 98.60]</text>
			<rect x="36" y="423.8125" width="1040" height="27.125" style="stroke: none; stroke-linecap: butt; stroke-width: 1; fill: rgb(98%,98%,98%); fill-rule: evenodd;"/>
			<text x="42" y="432.375" style="font-family: Helvetica-Bold; font-size: 13px;fill: rgb(37%,43%,50%); stroke:none;" transform="translate(0,864) scale(1,-1)">06</text>
			<rect x="73" y="427.375" width="4" height="21.0" style="stroke: none; stroke-linecap: butt; stroke-width: 1; fill: rgb(13%,38%,78%); fill-rule: evenodd;"/>
			<text x="88" y="435.375" style="font-family: Helvetica-Bold; font-size: 14px;fill: rgb(9%,14%,19%); stroke:none;" transform="translate(0,870) scale(1,-1)">Gemini 3.5 Flash</text>
			<text x="88" y="423.375" style="font-family: Helvetica; font-size: 8.5px;fill: rgb(37%,43%,50%); stroke:none;" transform="translate(0,846) scale(1,-1)">GOOGLE</text>
			<path d="M 365,437.375 L 855,437.375 Z" style="stroke: rgb(96%,96%,97%); stroke-linecap: butt; stroke-width: 5;"/>
			<path d="M 801.597422,437.375 L 838.731499,437.375 Z" style="stroke: rgb(25%,34%,41%); stroke-linecap: butt; stroke-width: 4.2;"/>
			<path d="M 801.597422,429.375 L 801.597422,445.375 Z" style="stroke: rgb(25%,34%,41%); stroke-linecap: butt; stroke-width: 2.8;"/>
			<path d="M 838.731499,429.375 L 838.731499,445.375 Z" style="stroke: rgb(25%,34%,41%); stroke-linecap: butt; stroke-width: 2.8;"/>
			<circle cx="821.7785412866667" cy="437.375" r="9" style="stroke: rgb(100%,100%,100%); stroke-linecap: butt; stroke-width: 4; fill: rgb(100%,100%,100%); fill-rule: evenodd;"/>
			<circle cx="821.7785412866667" cy="437.375" r="7" style="stroke: rgb(9%,14%,19%); stroke-linecap: butt; stroke-width: 0.9; fill: rgb(13%,38%,78%); fill-rule: evenodd;"/>
			<text x="909.972" y="432.375" style="font-family: Helvetica-Bold; font-size: 14px;fill: rgb(9%,14%,19%); stroke:none;" transform="translate(0,864) scale(1,-1)">96.95</text>
			<text x="999.6659999999999" y="432.375" style="font-family: Helvetica; font-size: 11.5px;fill: rgb(37%,43%,50%); stroke:none;" transform="translate(0,864) scale(1,-1)">[95.10, 98.51]</text>
			<text x="42" y="404.25" style="font-family: Helvetica-Bold; font-size: 13px;fill: rgb(37%,43%,50%); stroke:none;" transform="translate(0,808) scale(1,-1)">07</text>
			<rect x="73" y="399.25" width="4" height="21.0" style="stroke: none; stroke-linecap: butt; stroke-width: 1; fill: rgb(35%,29%,80%); fill-rule: evenodd;"/>
			<text x="88" y="407.25" style="font-family: Helvetica-Bold; font-size: 14px;fill: rgb(9%,14%,19%); stroke:none;" transform="translate(0,814) scale(1,-1)">DeepSeek V4 Pro</text>
			<text x="88" y="395.25" style="font-family: Helvetica; font-size: 8.5px;fill: rgb(37%,43%,50%); stroke:none;" transform="translate(0,790) scale(1,-1)">DEEPSEEK</text>
			<path d="M 365,409.25 L 855,409.25 Z" style="stroke: rgb(96%,96%,97%); stroke-linecap: butt; stroke-width: 5;"/>
			<path d="M 797.957385,409.25 L 836.598793,409.25 Z" style="stroke: rgb(25%,34%,41%); stroke-linecap: butt; stroke-width: 4.2;"/>
			<path d="M 797.957385,401.25 L 797.957385,417.25 Z" style="stroke: rgb(25%,34%,41%); stroke-linecap: butt; stroke-width: 2.8;"/>
			<path d="M 836.598793,401.25 L 836.598793,417.25 Z" style="stroke: rgb(25%,34%,41%); stroke-linecap: butt; stroke-width: 2.8;"/>
			<circle cx="819.2027777777778" cy="409.25" r="9" style="stroke: rgb(100%,100%,100%); stroke-linecap: butt; stroke-width: 4; fill: rgb(100%,100%,100%); fill-rule: evenodd;"/>
			<circle cx="819.2027777777778" cy="409.25" r="7" style="stroke: rgb(9%,14%,19%); stroke-linecap: butt; stroke-width: 0.9; fill: rgb(35%,29%,80%); fill-rule: evenodd;"/>
			<text x="909.972" y="404.25" style="font-family: Helvetica-Bold; font-size: 14px;fill: rgb(9%,14%,19%); stroke:none;" transform="translate(0,808) scale(1,-1)">96.71</text>
			<text x="999.6659999999999" y="404.25" style="font-family: Helvetica; font-size: 11.5px;fill: rgb(37%,43%,50%); stroke:none;" transform="translate(0,808) scale(1,-1)">[94.76, 98.31]</text>
			<rect x="36" y="367.5625" width="1040" height="27.125" style="stroke: none; stroke-linecap: butt; stroke-width: 1; fill: rgb(98%,98%,98%); fill-rule: evenodd;"/>
			<text x="42" y="376.125" style="font-family: Helvetica-Bold; font-size: 13px;fill: rgb(37%,43%,50%); stroke:none;" transform="translate(0,752) scale(1,-1)">08</text>
			<rect x="73" y="371.125" width="4" height="21.0" style="stroke: none; stroke-linecap: butt; stroke-width: 1; fill: rgb(12%,12%,14%); fill-rule: evenodd;"/>
			<text x="88" y="379.125" style="font-family: Helvetica-Bold; font-size: 14px;fill: rgb(9%,14%,19%); stroke:none;" transform="translate(0,758) scale(1,-1)">Grok 4.5</text>
			<text x="88" y="367.125" style="font-family: Helvetica; font-size: 8.5px;fill: rgb(37%,43%,50%); stroke:none;" transform="translate(0,734) scale(1,-1)">XAI</text>
			<path d="M 365,381.125 L 855,381.125 Z" style="stroke: rgb(96%,96%,97%); stroke-linecap: butt; stroke-width: 5;"/>
			<path d="M 764.13461,381.125 L 823.166715,381.125 Z" style="stroke: rgb(25%,34%,41%); stroke-linecap: butt; stroke-width: 4.2;"/>
			<path d="M 764.13461,373.125 L 764.13461,389.125 Z" style="stroke: rgb(25%,34%,41%); stroke-linecap: butt; stroke-width: 2.8;"/>
			<path d="M 823.166715,373.125 L 823.166715,389.125 Z" style="stroke: rgb(25%,34%,41%); stroke-linecap: butt; stroke-width: 2.8;"/>
			<circle cx="796.3384990444445" cy="381.125" r="9" style="stroke: rgb(100%,100%,100%); stroke-linecap: butt; stroke-width: 4; fill: rgb(100%,100%,100%); fill-rule: evenodd;"/>
			<circle cx="796.3384990444445" cy="381.125" r="7" style="stroke: rgb(9%,14%,19%); stroke-linecap: butt; stroke-width: 0.9; fill: rgb(12%,12%,14%); fill-rule: evenodd;"/>
			<text x="909.972" y="376.125" style="font-family: Helvetica-Bold; font-size: 14px;fill: rgb(9%,14%,19%); stroke:none;" transform="translate(0,752) scale(1,-1)">94.61</text>
			<text x="999.6659999999999" y="376.125" style="font-family: Helvetica; font-size: 11.5px;fill: rgb(37%,43%,50%); stroke:none;" transform="translate(0,752) scale(1,-1)">[91.66, 97.08]</text>
			<text x="42" y="348.0" style="font-family: Helvetica-Bold; font-size: 13px;fill: rgb(37%,43%,50%); stroke:none;" transform="translate(0,696) scale(1,-1)">09</text>
			<rect x="73" y="343.0" width="4" height="21.0" style="stroke: none; stroke-linecap: butt; stroke-width: 1; fill: rgb(3%,49%,44%); fill-rule: evenodd;"/>
			<text x="88" y="351.0" style="font-family: Helvetica-Bold; font-size: 14px;fill: rgb(9%,14%,19%); stroke:none;" transform="translate(0,702) scale(1,-1)">OpenAI o3</text>
			<text x="88" y="339.0" style="font-family: Helvetica; font-size: 8.5px;fill: rgb(37%,43%,50%); stroke:none;" transform="translate(0,678) scale(1,-1)">OPENAI</text>
			<path d="M 365,353 L 855,353 Z" style="stroke: rgb(96%,96%,97%); stroke-linecap: butt; stroke-width: 5;"/>
			<path d="M 743.264299,353 L 804.120144,353 Z" style="stroke: rgb(25%,34%,41%); stroke-linecap: butt; stroke-width: 4.2;"/>
			<path d="M 743.264299,345 L 743.264299,361 Z" style="stroke: rgb(25%,34%,41%); stroke-linecap: butt; stroke-width: 2.8;"/>
			<path d="M 804.120144,345 L 804.120144,361 Z" style="stroke: rgb(25%,34%,41%); stroke-linecap: butt; stroke-width: 2.8;"/>
			<circle cx="776.0639132133333" cy="353.0" r="9" style="stroke: rgb(100%,100%,100%); stroke-linecap: butt; stroke-width: 4; fill: rgb(100%,100%,100%); fill-rule: evenodd;"/>
			<circle cx="776.0639132133333" cy="353.0" r="7" style="stroke: rgb(9%,14%,19%); stroke-linecap: butt; stroke-width: 0.9; fill: rgb(3%,49%,44%); fill-rule: evenodd;"/>
			<text x="909.972" y="348.0" style="font-family: Helvetica-Bold; font-size: 14px;fill: rgb(9%,14%,19%); stroke:none;" transform="translate(0,696) scale(1,-1)">92.75</text>
			<text x="999.6659999999999" y="348.0" style="font-family: Helvetica; font-size: 11.5px;fill: rgb(37%,43%,50%); stroke:none;" transform="translate(0,696) scale(1,-1)">[89.74, 95.33]</text>
			<rect x="36" y="311.3125" width="1040" height="27.125" style="stroke: none; stroke-linecap: butt; stroke-width: 1; fill: rgb(98%,98%,98%); fill-rule: evenodd;"/>
			<text x="42" y="319.875" style="font-family: Helvetica-Bold; font-size: 13px;fill: rgb(37%,43%,50%); stroke:none;" transform="translate(0,639) scale(1,-1)">10</text>
			<rect x="73" y="314.875" width="4" height="21.0" style="stroke: none; stroke-linecap: butt; stroke-width: 1; fill: rgb(94%,35%,15%); fill-rule: evenodd;"/>
			<text x="88" y="322.875" style="font-family: Helvetica-Bold; font-size: 14px;fill: rgb(9%,14%,19%); stroke:none;" transform="translate(0,645) scale(1,-1)">Mistral Medium 3.5</text>
			<text x="88" y="310.875" style="font-family: Helvetica; font-size: 8.5px;fill: rgb(37%,43%,50%); stroke:none;" transform="translate(0,621) scale(1,-1)">MISTRAL</text>
			<path d="M 365,324.875 L 855,324.875 Z" style="stroke: rgb(96%,96%,97%); stroke-linecap: butt; stroke-width: 5;"/>
			<path d="M 673.037234,324.875 L 752.340433,324.875 Z" style="stroke: rgb(25%,34%,41%); stroke-linecap: butt; stroke-width: 4.2;"/>
			<path d="M 673.037234,316.875 L 673.037234,332.875 Z" style="stroke: rgb(25%,34%,41%); stroke-linecap: butt; stroke-width: 2.8;"/>
			<path d="M 752.340433,316.875 L 752.340433,332.875 Z" style="stroke: rgb(25%,34%,41%); stroke-linecap: butt; stroke-width: 2.8;"/>
			<circle cx="714.2455896533334" cy="324.875" r="9" style="stroke: rgb(100%,100%,100%); stroke-linecap: butt; stroke-width: 4; fill: rgb(100%,100%,100%); fill-rule: evenodd;"/>
			<circle cx="714.2455896533334" cy="324.875" r="7" style="stroke: rgb(9%,14%,19%); stroke-linecap: butt; stroke-width: 0.9; fill: rgb(94%,35%,15%); fill-rule: evenodd;"/>
			<text x="909.972" y="319.875" style="font-family: Helvetica-Bold; font-size: 14px;fill: rgb(9%,14%,19%); stroke:none;" transform="translate(0,639) scale(1,-1)">87.07</text>
			<text x="999.6659999999999" y="319.875" style="font-family: Helvetica; font-size: 11.5px;fill: rgb(37%,43%,50%); stroke:none;" transform="translate(0,639) scale(1,-1)">[83.29, 90.57]</text>
			<text x="42" y="291.75" style="font-family: Helvetica-Bold; font-size: 13px;fill: rgb(37%,43%,50%); stroke:none;" transform="translate(0,583) scale(1,-1)">11</text>
			<rect x="73" y="286.75" width="4" height="21.0" style="stroke: none; stroke-linecap: butt; stroke-width: 1; fill: rgb(35%,29%,80%); fill-rule: evenodd;"/>
			<text x="88" y="294.75" style="font-family: Helvetica-Bold; font-size: 14px;fill: rgb(9%,14%,19%); stroke:none;" transform="translate(0,589) scale(1,-1)">DeepSeek V4 Flash (no thinking)</text>
			<text x="88" y="282.75" style="font-family: Helvetica; font-size: 8.5px;fill: rgb(37%,43%,50%); stroke:none;" transform="translate(0,565) scale(1,-1)">DEEPSEEK</text>
			<path d="M 365,296.75 L 855,296.75 Z" style="stroke: rgb(96%,96%,97%); stroke-linecap: butt; stroke-width: 5;"/>
			<path d="M 666.929965,296.75 L 742.589475,296.75 Z" style="stroke: rgb(25%,34%,41%); stroke-linecap: butt; stroke-width: 4.2;"/>
			<path d="M 666.929965,288.75 L 666.929965,304.75 Z" style="stroke: rgb(25%,34%,41%); stroke-linecap: butt; stroke-width: 2.8;"/>
			<path d="M 742.589475,288.75 L 742.589475,304.75 Z" style="stroke: rgb(25%,34%,41%); stroke-linecap: butt; stroke-width: 2.8;"/>
			<circle cx="705.9225146599999" cy="296.75" r="9" style="stroke: rgb(100%,100%,100%); stroke-linecap: butt; stroke-width: 4; fill: rgb(100%,100%,100%); fill-rule: evenodd;"/>
			<circle cx="705.9225146599999" cy="296.75" r="7" style="stroke: rgb(9%,14%,19%); stroke-linecap: butt; stroke-width: 0.9; fill: rgb(35%,29%,80%); fill-rule: evenodd;"/>
			<text x="909.972" y="291.75" style="font-family: Helvetica-Bold; font-size: 14px;fill: rgb(9%,14%,19%); stroke:none;" transform="translate(0,583) scale(1,-1)">86.31</text>
			<text x="999.6659999999999" y="291.75" style="font-family: Helvetica; font-size: 11.5px;fill: rgb(37%,43%,50%); stroke:none;" transform="translate(0,583) scale(1,-1)">[82.73, 89.68]</text>
			<rect x="36" y="255.0625" width="1040" height="27.125" style="stroke: none; stroke-linecap: butt; stroke-width: 1; fill: rgb(98%,98%,98%); fill-rule: evenodd;"/>
			<text x="42" y="263.625" style="font-family: Helvetica-Bold; font-size: 13px;fill: rgb(37%,43%,50%); stroke:none;" transform="translate(0,527) scale(1,-1)">12</text>
			<rect x="73" y="258.625" width="4" height="21.0" style="stroke: none; stroke-linecap: butt; stroke-width: 1; fill: rgb(13%,38%,78%); fill-rule: evenodd;"/>
			<text x="88" y="266.625" style="font-family: Helvetica-Bold; font-size: 14px;fill: rgb(9%,14%,19%); stroke:none;" transform="translate(0,533) scale(1,-1)">Gemma 4 31B IT</text>
			<text x="88" y="254.625" style="font-family: Helvetica; font-size: 8.5px;fill: rgb(37%,43%,50%); stroke:none;" transform="translate(0,509) scale(1,-1)">GOOGLE</text>
			<path d="M 365,268.625 L 855,268.625 Z" style="stroke: rgb(96%,96%,97%); stroke-linecap: butt; stroke-width: 5;"/>
			<path d="M 653.767901,268.625 L 738.97865,268.625 Z" style="stroke: rgb(25%,34%,41%); stroke-linecap: butt; stroke-width: 4.2;"/>
			<path d="M 653.767901,260.625 L 653.767901,276.625 Z" style="stroke: rgb(25%,34%,41%); stroke-linecap: butt; stroke-width: 2.8;"/>
			<path d="M 738.97865,260.625 L 738.97865,276.625 Z" style="stroke: rgb(25%,34%,41%); stroke-linecap: butt; stroke-width: 2.8;"/>
			<circle cx="697.9707602511111" cy="268.625" r="9" style="stroke: rgb(100%,100%,100%); stroke-linecap: butt; stroke-width: 4; fill: rgb(100%,100%,100%); fill-rule: evenodd;"/>
			<circle cx="697.9707602511111" cy="268.625" r="7" style="stroke: rgb(9%,14%,19%); stroke-linecap: butt; stroke-width: 0.9; fill: rgb(13%,38%,78%); fill-rule: evenodd;"/>
			<text x="909.972" y="263.625" style="font-family: Helvetica-Bold; font-size: 14px;fill: rgb(9%,14%,19%); stroke:none;" transform="translate(0,527) scale(1,-1)">85.58</text>
			<text x="999.6659999999999" y="263.625" style="font-family: Helvetica; font-size: 11.5px;fill: rgb(37%,43%,50%); stroke:none;" transform="translate(0,527) scale(1,-1)">[81.52, 89.34]</text>
			<text x="42" y="235.5" style="font-family: Helvetica-Bold; font-size: 13px;fill: rgb(37%,43%,50%); stroke:none;" transform="translate(0,471) scale(1,-1)">13</text>
			<rect x="73" y="230.5" width="4" height="21.0" style="stroke: none; stroke-linecap: butt; stroke-width: 1; fill: rgb(94%,35%,15%); fill-rule: evenodd;"/>
			<text x="88" y="238.5" style="font-family: Helvetica-Bold; font-size: 14px;fill: rgb(9%,14%,19%); stroke:none;" transform="translate(0,477) scale(1,-1)">Mistral Small 4</text>
			<text x="88" y="226.5" style="font-family: Helvetica; font-size: 8.5px;fill: rgb(37%,43%,50%); stroke:none;" transform="translate(0,453) scale(1,-1)">MISTRAL</text>
			<path d="M 365,240.5 L 855,240.5 Z" style="stroke: rgb(96%,96%,97%); stroke-linecap: butt; stroke-width: 5;"/>
			<path d="M 647.011417,240.5 L 744.867187,240.5 Z" style="stroke: rgb(25%,34%,41%); stroke-linecap: butt; stroke-width: 4.2;"/>
			<path d="M 647.011417,232.5 L 647.011417,248.5 Z" style="stroke: rgb(25%,34%,41%); stroke-linecap: butt; stroke-width: 2.8;"/>
			<path d="M 744.867187,232.5 L 744.867187,248.5 Z" style="stroke: rgb(25%,34%,41%); stroke-linecap: butt; stroke-width: 2.8;"/>
			<circle cx="697.8561403222222" cy="240.5" r="9" style="stroke: rgb(100%,100%,100%); stroke-linecap: butt; stroke-width: 4; fill: rgb(100%,100%,100%); fill-rule: evenodd;"/>
			<circle cx="697.8561403222222" cy="240.5" r="7" style="stroke: rgb(9%,14%,19%); stroke-linecap: butt; stroke-width: 0.9; fill: rgb(94%,35%,15%); fill-rule: evenodd;"/>
			<text x="909.972" y="235.5" style="font-family: Helvetica-Bold; font-size: 14px;fill: rgb(9%,14%,19%); stroke:none;" transform="translate(0,471) scale(1,-1)">85.57</text>
			<text x="999.6659999999999" y="235.5" style="font-family: Helvetica; font-size: 11.5px;fill: rgb(37%,43%,50%); stroke:none;" transform="translate(0,471) scale(1,-1)">[80.90, 89.89]</text>
			<rect x="36" y="198.8125" width="1040" height="27.125" style="stroke: none; stroke-linecap: butt; stroke-width: 1; fill: rgb(98%,98%,98%); fill-rule: evenodd;"/>
			<text x="42" y="207.375" style="font-family: Helvetica-Bold; font-size: 13px;fill: rgb(37%,43%,50%); stroke:none;" transform="translate(0,414) scale(1,-1)">14</text>
			<rect x="73" y="202.375" width="4" height="21.0" style="stroke: none; stroke-linecap: butt; stroke-width: 1; fill: rgb(12%,12%,14%); fill-rule: evenodd;"/>
			<text x="88" y="210.375" style="font-family: Helvetica-Bold; font-size: 14px;fill: rgb(9%,14%,19%); stroke:none;" transform="translate(0,420) scale(1,-1)">Grok 4.3</text>
			<text x="88" y="198.375" style="font-family: Helvetica; font-size: 8.5px;fill: rgb(37%,43%,50%); stroke:none;" transform="translate(0,396) scale(1,-1)">XAI</text>
			<path d="M 365,212.375 L 855,212.375 Z" style="stroke: rgb(96%,96%,97%); stroke-linecap: butt; stroke-width: 5;"/>
			<path d="M 634.667005,212.375 L 747.315903,212.375 Z" style="stroke: rgb(25%,34%,41%); stroke-linecap: butt; stroke-width: 4.2;"/>
			<path d="M 634.667005,204.375 L 634.667005,220.375 Z" style="stroke: rgb(25%,34%,41%); stroke-linecap: butt; stroke-width: 2.8;"/>
			<path d="M 747.315903,204.375 L 747.315903,220.375 Z" style="stroke: rgb(25%,34%,41%); stroke-linecap: butt; stroke-width: 2.8;"/>
			<circle cx="694.2945662844445" cy="212.375" r="9" style="stroke: rgb(100%,100%,100%); stroke-linecap: butt; stroke-width: 4; fill: rgb(100%,100%,100%); fill-rule: evenodd;"/>
			<circle cx="694.2945662844445" cy="212.375" r="7" style="stroke: rgb(9%,14%,19%); stroke-linecap: butt; stroke-width: 0.9; fill: rgb(12%,12%,14%); fill-rule: evenodd;"/>
			<text x="909.972" y="207.375" style="font-family: Helvetica-Bold; font-size: 14px;fill: rgb(9%,14%,19%); stroke:none;" transform="translate(0,414) scale(1,-1)">85.24</text>
			<text x="999.6659999999999" y="207.375" style="font-family: Helvetica; font-size: 11.5px;fill: rgb(37%,43%,50%); stroke:none;" transform="translate(0,414) scale(1,-1)">[79.77, 90.11]</text>
			<text x="42" y="179.25" style="font-family: Helvetica-Bold; font-size: 13px;fill: rgb(37%,43%,50%); stroke:none;" transform="translate(0,358) scale(1,-1)">15</text>
			<rect x="73" y="174.25" width="4" height="21.0" style="stroke: none; stroke-linecap: butt; stroke-width: 1; fill: rgb(3%,49%,44%); fill-rule: evenodd;"/>
			<text x="88" y="182.25" style="font-family: Helvetica-Bold; font-size: 14px;fill: rgb(9%,14%,19%); stroke:none;" transform="translate(0,364) scale(1,-1)">OpenAI GPT-4.1</text>
			<text x="88" y="170.25" style="font-family: Helvetica; font-size: 8.5px;fill: rgb(37%,43%,50%); stroke:none;" transform="translate(0,340) scale(1,-1)">OPENAI</text>
			<path d="M 365,184.25 L 855,184.25 Z" style="stroke: rgb(96%,96%,97%); stroke-linecap: butt; stroke-width: 5;"/>
			<path d="M 489.830485,184.25 L 599.483745,184.25 Z" style="stroke: rgb(25%,34%,41%); stroke-linecap: butt; stroke-width: 4.2;"/>
			<path d="M 489.830485,176.25 L 489.830485,192.25 Z" style="stroke: rgb(25%,34%,41%); stroke-linecap: butt; stroke-width: 2.8;"/>
			<path d="M 599.483745,176.25 L 599.483745,192.25 Z" style="stroke: rgb(25%,34%,41%); stroke-linecap: butt; stroke-width: 2.8;"/>
			<circle cx="545.5573587222223" cy="184.25" r="9" style="stroke: rgb(100%,100%,100%); stroke-linecap: butt; stroke-width: 4; fill: rgb(100%,100%,100%); fill-rule: evenodd;"/>
			<circle cx="545.5573587222223" cy="184.25" r="7" style="stroke: rgb(9%,14%,19%); stroke-linecap: butt; stroke-width: 0.9; fill: rgb(3%,49%,44%); fill-rule: evenodd;"/>
			<text x="909.972" y="179.25" style="font-family: Helvetica-Bold; font-size: 14px;fill: rgb(9%,14%,19%); stroke:none;" transform="translate(0,358) scale(1,-1)">71.58</text>
			<text x="999.6659999999999" y="179.25" style="font-family: Helvetica; font-size: 11.5px;fill: rgb(37%,43%,50%); stroke:none;" transform="translate(0,358) scale(1,-1)">[66.46, 76.53]</text>
			<rect x="36" y="142.5625" width="1040" height="27.125" style="stroke: none; stroke-linecap: butt; stroke-width: 1; fill: rgb(98%,98%,98%); fill-rule: evenodd;"/>
			<text x="42" y="151.125" style="font-family: Helvetica-Bold; font-size: 13px;fill: rgb(37%,43%,50%); stroke:none;" transform="translate(0,302) scale(1,-1)">16</text>
			<rect x="73" y="146.125" width="4" height="21.0" style="stroke: none; stroke-linecap: butt; stroke-width: 1; fill: rgb(65%,32%,0%); fill-rule: evenodd;"/>
			<text x="88" y="154.125" style="font-family: Helvetica-Bold; font-size: 14px;fill: rgb(9%,14%,19%); stroke:none;" transform="translate(0,308) scale(1,-1)">Claude Sonnet 4.5</text>
			<text x="88" y="142.125" style="font-family: Helvetica; font-size: 8.5px;fill: rgb(37%,43%,50%); stroke:none;" transform="translate(0,284) scale(1,-1)">ANTHROPIC</text>
			<path d="M 365,156.125 L 855,156.125 Z" style="stroke: rgb(96%,96%,97%); stroke-linecap: butt; stroke-width: 5;"/>
			<path d="M 477.210418,156.125 L 598.154334,156.125 Z" style="stroke: rgb(25%,34%,41%); stroke-linecap: butt; stroke-width: 4.2;"/>
			<path d="M 477.210418,148.125 L 477.210418,164.125 Z" style="stroke: rgb(25%,34%,41%); stroke-linecap: butt; stroke-width: 2.8;"/>
			<path d="M 598.154334,148.125 L 598.154334,164.125 Z" style="stroke: rgb(25%,34%,41%); stroke-linecap: butt; stroke-width: 2.8;"/>
			<circle cx="538.2073587222221" cy="156.125" r="9" style="stroke: rgb(100%,100%,100%); stroke-linecap: butt; stroke-width: 4; fill: rgb(100%,100%,100%); fill-rule: evenodd;"/>
			<circle cx="538.2073587222221" cy="156.125" r="7" style="stroke: rgb(9%,14%,19%); stroke-linecap: butt; stroke-width: 0.9; fill: rgb(65%,32%,0%); fill-rule: evenodd;"/>
			<text x="909.972" y="151.125" style="font-family: Helvetica-Bold; font-size: 14px;fill: rgb(9%,14%,19%); stroke:none;" transform="translate(0,302) scale(1,-1)">70.91</text>
			<text x="999.6659999999999" y="151.125" style="font-family: Helvetica; font-size: 11.5px;fill: rgb(37%,43%,50%); stroke:none;" transform="translate(0,302) scale(1,-1)">[65.31, 76.41]</text>
			<text x="42" y="123.0" style="font-family: Helvetica-Bold; font-size: 13px;fill: rgb(37%,43%,50%); stroke:none;" transform="translate(0,246) scale(1,-1)">17</text>
			<rect x="73" y="118.0" width="4" height="21.0" style="stroke: none; stroke-linecap: butt; stroke-width: 1; fill: rgb(65%,32%,0%); fill-rule: evenodd;"/>
			<text x="88" y="126.0" style="font-family: Helvetica-Bold; font-size: 14px;fill: rgb(9%,14%,19%); stroke:none;" transform="translate(0,252) scale(1,-1)">Claude Haiku 4.5</text>
			<text x="88" y="114.0" style="font-family: Helvetica; font-size: 8.5px;fill: rgb(37%,43%,50%); stroke:none;" transform="translate(0,228) scale(1,-1)">ANTHROPIC</text>
			<path d="M 365,128 L 855,128 Z" style="stroke: rgb(96%,96%,97%); stroke-linecap: butt; stroke-width: 5;"/>
			<path d="M 414.755685,128 L 526.150899,128 Z" style="stroke: rgb(25%,34%,41%); stroke-linecap: butt; stroke-width: 4.2;"/>
			<path d="M 414.755685,120 L 414.755685,136 Z" style="stroke: rgb(25%,34%,41%); stroke-linecap: butt; stroke-width: 2.8;"/>
			<path d="M 526.150899,120 L 526.150899,136 Z" style="stroke: rgb(25%,34%,41%); stroke-linecap: butt; stroke-width: 2.8;"/>
			<circle cx="471.3445662844444" cy="128.0" r="9" style="stroke: rgb(100%,100%,100%); stroke-linecap: butt; stroke-width: 4; fill: rgb(100%,100%,100%); fill-rule: evenodd;"/>
			<circle cx="471.3445662844444" cy="128.0" r="7" style="stroke: rgb(9%,14%,19%); stroke-linecap: butt; stroke-width: 0.9; fill: rgb(65%,32%,0%); fill-rule: evenodd;"/>
			<text x="909.972" y="123.0" style="font-family: Helvetica-Bold; font-size: 14px;fill: rgb(9%,14%,19%); stroke:none;" transform="translate(0,246) scale(1,-1)">64.77</text>
			<text x="999.6659999999999" y="123.0" style="font-family: Helvetica; font-size: 11.5px;fill: rgb(37%,43%,50%); stroke:none;" transform="translate(0,246) scale(1,-1)">[59.57, 69.80]</text>
			<text x="393.86249999999995" y="47" style="font-family: Helvetica-Bold; font-size: 12.5px;fill: rgb(9%,19%,30%); stroke:none;" transform="translate(0,94) scale(1,-1)">MEAN ACCURACY (%) - FARTHER RIGHT = MORE CORRECT ANSWERS</text>
			<text x="42" y="17" style="font-family: Helvetica; font-size: 10.5px;fill: rgb(37%,43%,50%); stroke:none;" transform="translate(0,34) scale(1,-1)">Focused axis: 55-100% (does not start at zero). A shorter interval indicates a more precise estimate.</text>
		</g>
	</g>
</svg>
