<?xml version="1.0" encoding="utf-8"?>
<!DOCTYPE svg
  PUBLIC '-//W3C//DTD SVG 1.0//EN'
  'http://www.w3.org/TR/2001/REC-SVG-20010904/DTD/svg10.dtd'>
<svg width="841.8897637795277" height="595.2755905511812" preserveAspectRatio="xMinYMin meet" viewBox="0 0 841 595" xmlns="http://www.w3.org/2000/svg" version="1.0" fill-rule="evenodd" xmlns:xlink="http://www.w3.org/1999/xlink">
	<title>...</title>
	<desc>...</desc>
	<clipPath id="clip">
		<rect x="0" y="0" width="841.8897637795277" height="595.2755905511812"/>
	</clipPath>
	<g id="group" transform="scale(1,-1) translate(0,-595)" style="clip-path: url(#clip)">
		<g transform="">
			<text x="44" y="547.2755905511812" style="font-family: Helvetica; font-size: 24px;fill: rgb(9%,19%,30%); stroke:none;" transform="translate(0,1094) scale(1,-1)">How mean response time is formed</text>
			<text x="44" y="519.2755905511812" style="font-family: Helvetica; font-size: 11px;fill: rgb(35%,43%,50%); stroke:none;" transform="translate(0,1038) scale(1,-1)">Token volume and effective time intensity jointly explain observed response time</text>
			<rect x="44" y="474.27559055118115" width="760" height="31.0" style="stroke: rgb(83%,87%,90%); stroke-linecap: butt; stroke-width: 0.7; fill: rgb(95%,96%,97%); fill-rule: evenodd;"/>
			<text x="150.8915" y="485.27559055118115" style="font-family: Helvetica-Bold; font-size: 8.5px;fill: rgb(9%,19%,30%); stroke:none;" transform="translate(0,970) scale(1,-1)">MEAN TIME = MEAN TOKENS x EFFECTIVE SECONDS PER 1K / 1,000</text>
			<path d="M 548,501.275591 L 548,478.275591 Z" style="stroke: rgb(83%,87%,90%); stroke-linecap: butt; stroke-width: 0.9;"/>
			<circle cx="575" cy="489.27559055118115" r="4.2" style="stroke: rgb(100%,100%,100%); stroke-linecap: butt; stroke-width: 0.8; fill: rgb(5%,54%,51%); fill-rule: evenodd;"/>
			<circle cx="594" cy="489.27559055118115" r="8.0" style="stroke: rgb(100%,100%,100%); stroke-linecap: butt; stroke-width: 0.8; fill: rgb(5%,54%,51%); fill-rule: evenodd;"/>
			<text x="612" y="486.27559055118115" style="font-family: Helvetica-Bold; font-size: 6.8px;fill: rgb(9%,19%,30%); stroke:none;" transform="translate(0,972) scale(1,-1)">BUBBLE SIZE = MEAN RESPONSE TIME</text>
			<rect x="92" y="167.32000583057862" width="206.63594266666666" height="274.95558472060253" style="stroke: none; stroke-linecap: butt; stroke-width: 0; fill: rgb(98%,95%,93%); fill-rule: evenodd;"/>
			<rect x="298.63594266666666" y="167.32000583057862" width="301.36405733333334" height="274.95558472060253" style="stroke: none; stroke-linecap: butt; stroke-width: 0; fill: rgb(97%,92%,91%); fill-rule: evenodd;"/>
			<rect x="92" y="93.27559055118115" width="206.63594266666666" height="74.04441527939747" style="stroke: none; stroke-linecap: butt; stroke-width: 0; fill: rgb(92%,96%,96%); fill-rule: evenodd;"/>
			<rect x="298.63594266666666" y="93.27559055118115" width="301.36405733333334" height="74.04441527939747" style="stroke: none; stroke-linecap: butt; stroke-width: 0; fill: rgb(94%,96%,96%); fill-rule: evenodd;"/>
			<path d="M 92,442.275591 L 92,93.275591 Z" style="stroke: rgb(83%,87%,90%); stroke-linecap: butt; stroke-width: 0.65;"/>
			<path d="M 92,93.275591 L 600,93.275591 Z" style="stroke: rgb(83%,87%,90%); stroke-linecap: butt; stroke-width: 0.65;"/>
			<text x="88.1984" y="75.27559055118115" style="font-family: Helvetica; font-size: 7.2px;fill: rgb(9%,19%,30%); stroke:none;" transform="translate(0,150) scale(1,-1)">0k</text>
			<text x="77.9968" y="90.27559055118115" style="font-family: Helvetica; font-size: 7.2px;fill: rgb(9%,19%,30%); stroke:none;" transform="translate(0,180) scale(1,-1)">0</text>
			<path d="M 193.6,442.275591 L 193.6,93.275591 Z" style="stroke: rgb(83%,87%,90%); stroke-linecap: butt; stroke-width: 0.65;"/>
			<path d="M 92,163.075591 L 600,163.075591 Z" style="stroke: rgb(83%,87%,90%); stroke-linecap: butt; stroke-width: 0.65;"/>
			<text x="189.7984" y="75.27559055118115" style="font-family: Helvetica; font-size: 7.2px;fill: rgb(9%,19%,30%); stroke:none;" transform="translate(0,150) scale(1,-1)">5k</text>
			<text x="73.9936" y="160.07559055118116" style="font-family: Helvetica; font-size: 7.2px;fill: rgb(9%,19%,30%); stroke:none;" transform="translate(0,320) scale(1,-1)">12</text>
			<path d="M 295.2,442.275591 L 295.2,93.275591 Z" style="stroke: rgb(83%,87%,90%); stroke-linecap: butt; stroke-width: 0.65;"/>
			<path d="M 92,232.875591 L 600,232.875591 Z" style="stroke: rgb(83%,87%,90%); stroke-linecap: butt; stroke-width: 0.65;"/>
			<text x="289.3968" y="75.27559055118115" style="font-family: Helvetica; font-size: 7.2px;fill: rgb(9%,19%,30%); stroke:none;" transform="translate(0,150) scale(1,-1)">10k</text>
			<text x="73.9936" y="229.87559055118118" style="font-family: Helvetica; font-size: 7.2px;fill: rgb(9%,19%,30%); stroke:none;" transform="translate(0,459) scale(1,-1)">24</text>
			<path d="M 396.8,442.275591 L 396.8,93.275591 Z" style="stroke: rgb(83%,87%,90%); stroke-linecap: butt; stroke-width: 0.65;"/>
			<path d="M 92,302.675591 L 600,302.675591 Z" style="stroke: rgb(83%,87%,90%); stroke-linecap: butt; stroke-width: 0.65;"/>
			<text x="390.9968" y="75.27559055118115" style="font-family: Helvetica; font-size: 7.2px;fill: rgb(9%,19%,30%); stroke:none;" transform="translate(0,150) scale(1,-1)">15k</text>
			<text x="73.9936" y="299.67559055118113" style="font-family: Helvetica; font-size: 7.2px;fill: rgb(9%,19%,30%); stroke:none;" transform="translate(0,599) scale(1,-1)">36</text>
			<path d="M 498.4,442.275591 L 498.4,93.275591 Z" style="stroke: rgb(83%,87%,90%); stroke-linecap: butt; stroke-width: 0.65;"/>
			<path d="M 92,372.475591 L 600,372.475591 Z" style="stroke: rgb(83%,87%,90%); stroke-linecap: butt; stroke-width: 0.65;"/>
			<text x="492.5968" y="75.27559055118115" style="font-family: Helvetica; font-size: 7.2px;fill: rgb(9%,19%,30%); stroke:none;" transform="translate(0,150) scale(1,-1)">20k</text>
			<text x="73.9936" y="369.47559055118114" style="font-family: Helvetica; font-size: 7.2px;fill: rgb(9%,19%,30%); stroke:none;" transform="translate(0,738) scale(1,-1)">48</text>
			<path d="M 600,442.275591 L 600,93.275591 Z" style="stroke: rgb(83%,87%,90%); stroke-linecap: butt; stroke-width: 0.65;"/>
			<path d="M 92,442.275591 L 600,442.275591 Z" style="stroke: rgb(83%,87%,90%); stroke-linecap: butt; stroke-width: 0.65;"/>
			<text x="594.1968" y="75.27559055118115" style="font-family: Helvetica; font-size: 7.2px;fill: rgb(9%,19%,30%); stroke:none;" transform="translate(0,150) scale(1,-1)">25k</text>
			<text x="73.9936" y="439.27559055118115" style="font-family: Helvetica; font-size: 7.2px;fill: rgb(9%,19%,30%); stroke:none;" transform="translate(0,878) scale(1,-1)">60</text>
			<path d="M 298.635943,442.275591 L 298.635943,93.275591 Z" style="stroke: rgb(35%,43%,50%); stroke-linecap: butt; stroke-width: 1;"/>
			<path d="M 92,167.320006 L 600,167.320006 Z" style="stroke: rgb(35%,43%,50%); stroke-linecap: butt; stroke-width: 1;"/>
			<path d="M 92,93.275591 L 600,93.275591 Z" style="stroke: rgb(9%,19%,30%); stroke-linecap: butt; stroke-width: 1.2;"/>
			<path d="M 92,442.275591 L 92,93.275591 Z" style="stroke: rgb(9%,19%,30%); stroke-linecap: butt; stroke-width: 1.2;"/>
			<text x="100" y="428.27559055118115" style="font-family: Helvetica-Bold; font-size: 6.1px;fill: rgb(69%,22%,22%); stroke:none;" transform="translate(0,856) scale(1,-1)">FEWER TOKENS</text>
			<text x="100" y="419.27559055118115" style="font-family: Helvetica-Bold; font-size: 6.1px;fill: rgb(69%,22%,22%); stroke:none;" transform="translate(0,838) scale(1,-1)">HIGH INTENSITY</text>
			<text x="546.5855" y="428.27559055118115" style="font-family: Helvetica-Bold; font-size: 6.1px;fill: rgb(69%,22%,22%); stroke:none;" transform="translate(0,856) scale(1,-1)">MORE TOKENS</text>
			<text x="543.1939" y="419.27559055118115" style="font-family: Helvetica-Bold; font-size: 6.1px;fill: rgb(69%,22%,22%); stroke:none;" transform="translate(0,838) scale(1,-1)">HIGH INTENSITY</text>
			<text x="100" y="121.27559055118115" style="font-family: Helvetica-Bold; font-size: 6.1px;fill: rgb(5%,54%,51%); stroke:none;" transform="translate(0,242) scale(1,-1)">FEWER TOKENS</text>
			<text x="100" y="112.27559055118115" style="font-family: Helvetica-Bold; font-size: 6.1px;fill: rgb(5%,54%,51%); stroke:none;" transform="translate(0,224) scale(1,-1)">LOW INTENSITY</text>
			<text x="546.5855" y="121.27559055118115" style="font-family: Helvetica-Bold; font-size: 6.1px;fill: rgb(5%,54%,51%); stroke:none;" transform="translate(0,242) scale(1,-1)">MORE TOKENS</text>
			<text x="544.2126" y="112.27559055118115" style="font-family: Helvetica-Bold; font-size: 6.1px;fill: rgb(5%,54%,51%); stroke:none;" transform="translate(0,224) scale(1,-1)">LOW INTENSITY</text>
			<circle cx="186.46835733333336" cy="125.21727824217066" r="5.41753171319143" style="stroke: rgb(100%,100%,100%); stroke-linecap: butt; stroke-width: 1; fill: rgb(70%,35%,0%); fill-rule: evenodd;"/>
			<text x="185.02275733333335" y="123.01727824217068" style="font-family: Helvetica-Bold; font-size: 5.2px;fill: rgb(100%,100%,100%); stroke:none;" transform="translate(0,246) scale(1,-1)">1</text>
			<circle cx="242.19663466666665" cy="133.0532331144026" r="5.9131989209841995" style="stroke: rgb(100%,100%,100%); stroke-linecap: butt; stroke-width: 1; fill: rgb(35%,29%,83%); fill-rule: evenodd;"/>
			<text x="240.75103466666664" y="130.8532331144026" style="font-family: Helvetica-Bold; font-size: 5.2px;fill: rgb(100%,100%,100%); stroke:none;" transform="translate(0,261) scale(1,-1)">2</text>
			<circle cx="160.39982933333334" cy="161.52384213575561" r="5.714368072439488" style="stroke: rgb(100%,100%,100%); stroke-linecap: butt; stroke-width: 1; fill: rgb(70%,35%,0%); fill-rule: evenodd;"/>
			<text x="158.95422933333333" y="159.32384213575563" style="font-family: Helvetica-Bold; font-size: 5.2px;fill: rgb(100%,100%,100%); stroke:none;" transform="translate(0,318) scale(1,-1)">3</text>
			<circle cx="197.45910666666668" cy="144.10672253435365" r="5.8228003979048735" style="stroke: rgb(100%,100%,100%); stroke-linecap: butt; stroke-width: 1; fill: rgb(5%,54%,51%); fill-rule: evenodd;"/>
			<text x="196.01350666666667" y="141.90672253435366" style="font-family: Helvetica-Bold; font-size: 5.2px;fill: rgb(100%,100%,100%); stroke:none;" transform="translate(0,283) scale(1,-1)">4</text>
			<circle cx="422.6068515555555" cy="143.4891159371557" r="7.0557780572885065" style="stroke: rgb(100%,100%,100%); stroke-linecap: butt; stroke-width: 1; fill: rgb(17%,43%,79%); fill-rule: evenodd;"/>
			<text x="421.1612515555555" y="141.2891159371557" style="font-family: Helvetica-Bold; font-size: 5.2px;fill: rgb(100%,100%,100%); stroke:none;" transform="translate(0,282) scale(1,-1)">5</text>
			<circle cx="310.12368533333336" cy="184.43898557208485" r="7.325502346968803" style="stroke: rgb(100%,100%,100%); stroke-linecap: butt; stroke-width: 1; fill: rgb(5%,54%,51%); fill-rule: evenodd;"/>
			<text x="308.67808533333334" y="182.23898557208486" style="font-family: Helvetica-Bold; font-size: 5.2px;fill: rgb(100%,100%,100%); stroke:none;" transform="translate(0,364) scale(1,-1)">6</text>
			<circle cx="314.21443999999997" cy="140.63051945886673" r="6.473667236968228" style="stroke: rgb(100%,100%,100%); stroke-linecap: butt; stroke-width: 1; fill: rgb(12%,12%,14%); fill-rule: evenodd;"/>
			<text x="312.76883999999995" y="138.43051945886674" style="font-family: Helvetica-Bold; font-size: 5.2px;fill: rgb(100%,100%,100%); stroke:none;" transform="translate(0,276) scale(1,-1)">7</text>
			<circle cx="162.8531306666667" cy="226.4346734026269" r="6.352896197137767" style="stroke: rgb(100%,100%,100%); stroke-linecap: butt; stroke-width: 1; fill: rgb(17%,43%,79%); fill-rule: evenodd;"/>
			<text x="161.40753066666667" y="224.23467340262692" style="font-family: Helvetica-Bold; font-size: 5.2px;fill: rgb(100%,100%,100%); stroke:none;" transform="translate(0,448) scale(1,-1)">8</text>
			<circle cx="263.83608000000004" cy="416.7291891738053" r="9.42542168045896" style="stroke: rgb(100%,100%,100%); stroke-linecap: butt; stroke-width: 1; fill: rgb(70%,35%,0%); fill-rule: evenodd;"/>
			<text x="262.39048" y="414.5291891738053" style="font-family: Helvetica-Bold; font-size: 5.2px;fill: rgb(100%,100%,100%); stroke:none;" transform="translate(0,829) scale(1,-1)">9</text>
			<circle cx="287.1482" cy="186.10872979858163" r="7.183265900824431" style="stroke: rgb(100%,100%,100%); stroke-linecap: butt; stroke-width: 1; fill: rgb(12%,12%,14%); fill-rule: evenodd;"/>
			<text x="284.25699999999995" y="183.90872979858165" style="font-family: Helvetica-Bold; font-size: 5.2px;fill: rgb(100%,100%,100%); stroke:none;" transform="translate(0,367) scale(1,-1)">10</text>
			<circle cx="325.54475911111115" cy="356.5512026823163" r="9.696023098992246" style="stroke: rgb(100%,100%,100%); stroke-linecap: butt; stroke-width: 1; fill: rgb(17%,43%,79%); fill-rule: evenodd;"/>
			<text x="322.6535591111111" y="354.3512026823163" style="font-family: Helvetica-Bold; font-size: 5.2px;fill: rgb(100%,100%,100%); stroke:none;" transform="translate(0,708) scale(1,-1)">11</text>
			<circle cx="564.7156746666666" cy="150.02947978245885" r="7.830412605510812" style="stroke: rgb(100%,100%,100%); stroke-linecap: butt; stroke-width: 1; fill: rgb(35%,29%,83%); fill-rule: evenodd;"/>
			<text x="561.8244746666666" y="147.82947978245886" style="font-family: Helvetica-Bold; font-size: 5.2px;fill: rgb(100%,100%,100%); stroke:none;" transform="translate(0,295) scale(1,-1)">12</text>
			<circle cx="453.1548106666666" cy="173.11616952540163" r="7.963714842054534" style="stroke: rgb(100%,100%,100%); stroke-linecap: butt; stroke-width: 1; fill: rgb(35%,29%,83%); fill-rule: evenodd;"/>
			<text x="450.2636106666666" y="170.91616952540164" style="font-family: Helvetica-Bold; font-size: 5.2px;fill: rgb(100%,100%,100%); stroke:none;" transform="translate(0,341) scale(1,-1)">13</text>
			<circle cx="416.7631582222223" cy="358.09122118856936" r="10.7" style="stroke: rgb(100%,100%,100%); stroke-linecap: butt; stroke-width: 1; fill: rgb(5%,54%,51%); fill-rule: evenodd;"/>
			<text x="413.87195822222225" y="355.8912211885694" style="font-family: Helvetica-Bold; font-size: 5.2px;fill: rgb(100%,100%,100%); stroke:none;" transform="translate(0,711) scale(1,-1)">14</text>
			<text x="257.55205" y="49.27559055118115" style="font-family: Helvetica; font-size: 8.1px;fill: rgb(9%,19%,30%); stroke:none;" transform="translate(0,98) scale(1,-1)">MEAN ANALYTICAL TOKENS PER RESPONSE</text>
			<g transform=" matrix(0,1,-1,0,44,267.775591)">
				<text x="-101.36" y="0" style="font-family: Helvetica; font-size: 8.0px;fill: rgb(9%,19%,30%); stroke:none;" transform="translate(0,0) scale(1,-1)">EFFECTIVE SECONDS PER 1K ANALYTICAL TOKENS</text>
			</g>
			<text x="628" y="455.27559055118115" style="font-family: Helvetica; font-size: 7.0px;fill: rgb(35%,43%,50%); stroke:none;" transform="translate(0,910) scale(1,-1)">RANK</text>
			<text x="658" y="455.27559055118115" style="font-family: Helvetica; font-size: 7.0px;fill: rgb(35%,43%,50%); stroke:none;" transform="translate(0,910) scale(1,-1)">MODEL</text>
			<text x="628" y="440.27559055118115" style="font-family: Helvetica; font-size: 7.2px;fill: rgb(35%,43%,50%); stroke:none;" transform="translate(0,880) scale(1,-1)">01</text>
			<rect x="656" y="435.27559055118115" width="3" height="15.0" style="stroke: none; stroke-linecap: butt; stroke-width: 0; fill: rgb(70%,35%,0%); fill-rule: evenodd;"/>
			<text x="665" y="440.27559055118115" style="font-family: Helvetica; font-size: 7.1px;fill: rgb(9%,14%,20%); stroke:none;" transform="translate(0,880) scale(1,-1)">Claude Haiku 4.5</text>
			<rect x="622" y="402.8755905511812" width="178" height="24.69999999999999" style="stroke: none; stroke-linecap: butt; stroke-width: 0; fill: rgb(96%,97%,98%); fill-rule: evenodd;"/>
			<text x="628" y="415.57559055118116" style="font-family: Helvetica; font-size: 7.2px;fill: rgb(35%,43%,50%); stroke:none;" transform="translate(0,831) scale(1,-1)">02</text>
			<rect x="656" y="410.57559055118116" width="3" height="15.0" style="stroke: none; stroke-linecap: butt; stroke-width: 0; fill: rgb(35%,29%,83%); fill-rule: evenodd;"/>
			<text x="665" y="415.57559055118116" style="font-family: Helvetica; font-size: 7.1px;fill: rgb(9%,14%,20%); stroke:none;" transform="translate(0,831) scale(1,-1)">DeepSeek V4 Flash (no thinking)</text>
			<text x="628" y="390.8755905511812" style="font-family: Helvetica; font-size: 7.2px;fill: rgb(35%,43%,50%); stroke:none;" transform="translate(0,781) scale(1,-1)">03</text>
			<rect x="656" y="385.8755905511812" width="3" height="15.0" style="stroke: none; stroke-linecap: butt; stroke-width: 0; fill: rgb(70%,35%,0%); fill-rule: evenodd;"/>
			<text x="665" y="390.8755905511812" style="font-family: Helvetica; font-size: 7.1px;fill: rgb(9%,14%,20%); stroke:none;" transform="translate(0,781) scale(1,-1)">Claude Sonnet 4.5</text>
			<rect x="622" y="353.4755905511812" width="178" height="24.69999999999999" style="stroke: none; stroke-linecap: butt; stroke-width: 0; fill: rgb(96%,97%,98%); fill-rule: evenodd;"/>
			<text x="628" y="366.17559055118113" style="font-family: Helvetica; font-size: 7.2px;fill: rgb(35%,43%,50%); stroke:none;" transform="translate(0,732) scale(1,-1)">04</text>
			<rect x="656" y="361.17559055118113" width="3" height="15.0" style="stroke: none; stroke-linecap: butt; stroke-width: 0; fill: rgb(5%,54%,51%); fill-rule: evenodd;"/>
			<text x="665" y="366.17559055118113" style="font-family: Helvetica; font-size: 7.1px;fill: rgb(9%,14%,20%); stroke:none;" transform="translate(0,732) scale(1,-1)">OpenAI GPT-4.1</text>
			<text x="628" y="341.47559055118114" style="font-family: Helvetica; font-size: 7.2px;fill: rgb(35%,43%,50%); stroke:none;" transform="translate(0,682) scale(1,-1)">05</text>
			<rect x="656" y="336.47559055118114" width="3" height="15.0" style="stroke: none; stroke-linecap: butt; stroke-width: 0; fill: rgb(17%,43%,79%); fill-rule: evenodd;"/>
			<text x="665" y="341.47559055118114" style="font-family: Helvetica; font-size: 7.1px;fill: rgb(9%,14%,20%); stroke:none;" transform="translate(0,682) scale(1,-1)">Gemini 3.5 Flash</text>
			<rect x="622" y="304.07559055118116" width="178" height="24.69999999999999" style="stroke: none; stroke-linecap: butt; stroke-width: 0; fill: rgb(96%,97%,98%); fill-rule: evenodd;"/>
			<text x="628" y="316.77559055118115" style="font-family: Helvetica; font-size: 7.2px;fill: rgb(35%,43%,50%); stroke:none;" transform="translate(0,633) scale(1,-1)">06</text>
			<rect x="656" y="311.77559055118115" width="3" height="15.0" style="stroke: none; stroke-linecap: butt; stroke-width: 0; fill: rgb(5%,54%,51%); fill-rule: evenodd;"/>
			<text x="665" y="316.77559055118115" style="font-family: Helvetica; font-size: 7.1px;fill: rgb(9%,14%,20%); stroke:none;" transform="translate(0,633) scale(1,-1)">OpenAI o3</text>
			<text x="628" y="292.07559055118116" style="font-family: Helvetica; font-size: 7.2px;fill: rgb(35%,43%,50%); stroke:none;" transform="translate(0,584) scale(1,-1)">07</text>
			<rect x="656" y="287.07559055118116" width="3" height="15.0" style="stroke: none; stroke-linecap: butt; stroke-width: 0; fill: rgb(12%,12%,14%); fill-rule: evenodd;"/>
			<text x="665" y="292.07559055118116" style="font-family: Helvetica; font-size: 7.1px;fill: rgb(9%,14%,20%); stroke:none;" transform="translate(0,584) scale(1,-1)">Grok 4.3</text>
			<rect x="622" y="254.6755905511812" width="178" height="24.69999999999999" style="stroke: none; stroke-linecap: butt; stroke-width: 0; fill: rgb(96%,97%,98%); fill-rule: evenodd;"/>
			<text x="628" y="267.3755905511812" style="font-family: Helvetica; font-size: 7.2px;fill: rgb(35%,43%,50%); stroke:none;" transform="translate(0,534) scale(1,-1)">08</text>
			<rect x="656" y="262.3755905511812" width="3" height="15.0" style="stroke: none; stroke-linecap: butt; stroke-width: 0; fill: rgb(17%,43%,79%); fill-rule: evenodd;"/>
			<text x="665" y="267.3755905511812" style="font-family: Helvetica; font-size: 7.1px;fill: rgb(9%,14%,20%); stroke:none;" transform="translate(0,534) scale(1,-1)">Gemma 4 31B IT</text>
			<text x="628" y="242.67559055118113" style="font-family: Helvetica; font-size: 7.2px;fill: rgb(35%,43%,50%); stroke:none;" transform="translate(0,485) scale(1,-1)">09</text>
			<rect x="656" y="237.67559055118113" width="3" height="15.0" style="stroke: none; stroke-linecap: butt; stroke-width: 0; fill: rgb(70%,35%,0%); fill-rule: evenodd;"/>
			<text x="665" y="242.67559055118113" style="font-family: Helvetica; font-size: 7.1px;fill: rgb(9%,14%,20%); stroke:none;" transform="translate(0,485) scale(1,-1)">Claude Fable 5</text>
			<rect x="622" y="205.2755905511812" width="178" height="24.69999999999999" style="stroke: none; stroke-linecap: butt; stroke-width: 0; fill: rgb(96%,97%,98%); fill-rule: evenodd;"/>
			<text x="628" y="217.9755905511812" style="font-family: Helvetica; font-size: 7.2px;fill: rgb(35%,43%,50%); stroke:none;" transform="translate(0,435) scale(1,-1)">10</text>
			<rect x="656" y="212.9755905511812" width="3" height="15.0" style="stroke: none; stroke-linecap: butt; stroke-width: 0; fill: rgb(12%,12%,14%); fill-rule: evenodd;"/>
			<text x="665" y="217.9755905511812" style="font-family: Helvetica; font-size: 7.1px;fill: rgb(9%,14%,20%); stroke:none;" transform="translate(0,435) scale(1,-1)">Grok 4.5</text>
			<text x="628" y="193.27559055118115" style="font-family: Helvetica; font-size: 7.2px;fill: rgb(35%,43%,50%); stroke:none;" transform="translate(0,386) scale(1,-1)">11</text>
			<rect x="656" y="188.27559055118115" width="3" height="15.0" style="stroke: none; stroke-linecap: butt; stroke-width: 0; fill: rgb(17%,43%,79%); fill-rule: evenodd;"/>
			<text x="665" y="193.27559055118115" style="font-family: Helvetica; font-size: 7.1px;fill: rgb(9%,14%,20%); stroke:none;" transform="translate(0,386) scale(1,-1)">Gemini 3.1 Pro Preview</text>
			<rect x="622" y="155.87559055118118" width="178" height="24.69999999999999" style="stroke: none; stroke-linecap: butt; stroke-width: 0; fill: rgb(96%,97%,98%); fill-rule: evenodd;"/>
			<text x="628" y="168.57559055118116" style="font-family: Helvetica; font-size: 7.2px;fill: rgb(35%,43%,50%); stroke:none;" transform="translate(0,337) scale(1,-1)">12</text>
			<rect x="656" y="163.57559055118116" width="3" height="15.0" style="stroke: none; stroke-linecap: butt; stroke-width: 0; fill: rgb(35%,29%,83%); fill-rule: evenodd;"/>
			<text x="665" y="168.57559055118116" style="font-family: Helvetica; font-size: 7.1px;fill: rgb(9%,14%,20%); stroke:none;" transform="translate(0,337) scale(1,-1)">DeepSeek V4 Flash</text>
			<text x="628" y="143.87559055118118" style="font-family: Helvetica; font-size: 7.2px;fill: rgb(35%,43%,50%); stroke:none;" transform="translate(0,287) scale(1,-1)">13</text>
			<rect x="656" y="138.87559055118118" width="3" height="15.0" style="stroke: none; stroke-linecap: butt; stroke-width: 0; fill: rgb(35%,29%,83%); fill-rule: evenodd;"/>
			<text x="665" y="143.87559055118118" style="font-family: Helvetica; font-size: 7.1px;fill: rgb(9%,14%,20%); stroke:none;" transform="translate(0,287) scale(1,-1)">DeepSeek V4 Pro</text>
			<rect x="622" y="106.4755905511812" width="178" height="24.69999999999999" style="stroke: none; stroke-linecap: butt; stroke-width: 0; fill: rgb(96%,97%,98%); fill-rule: evenodd;"/>
			<text x="628" y="119.17559055118119" style="font-family: Helvetica; font-size: 7.2px;fill: rgb(35%,43%,50%); stroke:none;" transform="translate(0,238) scale(1,-1)">14</text>
			<rect x="656" y="114.17559055118119" width="3" height="15.0" style="stroke: none; stroke-linecap: butt; stroke-width: 0; fill: rgb(5%,54%,51%); fill-rule: evenodd;"/>
			<text x="665" y="119.17559055118119" style="font-family: Helvetica; font-size: 7.1px;fill: rgb(9%,14%,20%); stroke:none;" transform="translate(0,238) scale(1,-1)">GPT-5.6 Sol</text>
			<text x="44" y="29.275590551181153" style="font-family: Helvetica; font-size: 7.2px;fill: rgb(35%,43%,50%); stroke:none;" transform="translate(0,58) scale(1,-1)">Seconds per 1K is an operational ratio: it includes latency, generation, and retries, not pure provider throughput.</text>
			<text x="44" y="14.275590551181153" style="font-family: Helvetica; font-size: 6.6px;fill: rgb(35%,43%,50%); stroke:none;" transform="translate(0,28) scale(1,-1)">Common panel: 60 exercises (33 Analysis 3, 27 Physics 2), 14 models, 840 macro-averaged cells</text>
			<text x="790.826" y="14.275590551181153" style="font-family: Helvetica; font-size: 6.6px;fill: rgb(35%,43%,50%); stroke:none;" transform="translate(0,28) scale(1,-1)">3/4</text>
		</g>
	</g>
</svg>
