<svg xmlns="http://www.w3.org/2000/svg" width="1680" height="720" viewBox="0 0 1680 720">
<rect width="1680" height="720" fill="#FFFFFF"/>
<text x="35.0" y="40.0" font-family="Arial, sans-serif" font-size="24" fill="#17324D" text-anchor="start" font-weight="bold">Distribuzione sui 60 esercizi comuni</text>
<text x="625.0" y="78.0" font-family="Arial, sans-serif" font-size="15" fill="#17324D" text-anchor="middle" font-weight="bold">Output fatturabile per risposta</text>
<line x1="300.0" y1="95" x2="300.0" y2="637" stroke="#D8E0E5"/>
<text x="300.0" y="662.0" font-family="Arial, sans-serif" font-size="10" fill="#5B6872" text-anchor="middle" font-weight="normal">0k</text>
<line x1="462.5" y1="95" x2="462.5" y2="637" stroke="#D8E0E5"/>
<text x="462.5" y="662.0" font-family="Arial, sans-serif" font-size="10" fill="#5B6872" text-anchor="middle" font-weight="normal">17k</text>
<line x1="625.0" y1="95" x2="625.0" y2="637" stroke="#D8E0E5"/>
<text x="625.0" y="662.0" font-family="Arial, sans-serif" font-size="10" fill="#5B6872" text-anchor="middle" font-weight="normal">35k</text>
<line x1="787.5" y1="95" x2="787.5" y2="637" stroke="#D8E0E5"/>
<text x="787.5" y="662.0" font-family="Arial, sans-serif" font-size="10" fill="#5B6872" text-anchor="middle" font-weight="normal">52k</text>
<line x1="950.0" y1="95" x2="950.0" y2="637" stroke="#D8E0E5"/>
<text x="950.0" y="662.0" font-family="Arial, sans-serif" font-size="10" fill="#5B6872" text-anchor="middle" font-weight="normal">69k</text>
<text x="288.0" y="127.0" font-family="Arial, sans-serif" font-size="11" fill="#17324D" text-anchor="end" font-weight="normal">Claude Fable 5</text>
<line x1="328.6" y1="123" x2="464.4" y2="123" stroke="#9A4D00" stroke-width="2"/>
<rect x="349.2" y="115" width="30.1" height="16" fill="#9A4D00" fill-opacity="0.35" stroke="#9A4D00"/>
<line x1="363.7" y1="113" x2="363.7" y2="133" stroke="#9A4D00" stroke-width="3"/>
<text x="288.0" y="165.0" font-family="Arial, sans-serif" font-size="11" fill="#17324D" text-anchor="end" font-weight="normal">Claude Haiku 4.5</text>
<line x1="320.3" y1="161" x2="364.4" y2="161" stroke="#9A4D00" stroke-width="2"/>
<rect x="328.4" y="153" width="14.4" height="16" fill="#9A4D00" fill-opacity="0.35" stroke="#9A4D00"/>
<line x1="335.1" y1="151" x2="335.1" y2="171" stroke="#9A4D00" stroke-width="3"/>
<text x="288.0" y="203.0" font-family="Arial, sans-serif" font-size="11" fill="#17324D" text-anchor="end" font-weight="normal">Claude Sonnet 4.5</text>
<line x1="314.9" y1="199" x2="341.2" y2="199" stroke="#9A4D00" stroke-width="2"/>
<rect x="319.8" y="191" width="8.0" height="16" fill="#9A4D00" fill-opacity="0.35" stroke="#9A4D00"/>
<line x1="323.4" y1="189" x2="323.4" y2="209" stroke="#9A4D00" stroke-width="3"/>
<text x="288.0" y="241.0" font-family="Arial, sans-serif" font-size="11" fill="#17324D" text-anchor="end" font-weight="normal">DeepSeek V4 Flash</text>
<line x1="364.5" y1="237" x2="702.2" y2="237" stroke="#5B4BCE" stroke-width="2"/>
<rect x="455.1" y="229" width="101.9" height="16" fill="#5B4BCE" fill-opacity="0.35" stroke="#5B4BCE"/>
<line x1="497.7" y1="227" x2="497.7" y2="247" stroke="#5B4BCE" stroke-width="3"/>
<text x="288.0" y="279.0" font-family="Arial, sans-serif" font-size="11" fill="#17324D" text-anchor="end" font-weight="normal">DeepSeek V4 Flash (no thinking)</text>
<line x1="316.6" y1="275" x2="751.2" y2="275" stroke="#5B4BCE" stroke-width="2"/>
<rect x="331.0" y="267" width="39.5" height="16" fill="#5B4BCE" fill-opacity="0.35" stroke="#5B4BCE"/>
<line x1="345.7" y1="265" x2="345.7" y2="285" stroke="#5B4BCE" stroke-width="3"/>
<text x="288.0" y="317.0" font-family="Arial, sans-serif" font-size="11" fill="#17324D" text-anchor="end" font-weight="normal">DeepSeek V4 Pro</text>
<line x1="336.7" y1="313" x2="950.0" y2="313" stroke="#5B4BCE" stroke-width="2"/>
<rect x="395.1" y="305" width="75.5" height="16" fill="#5B4BCE" fill-opacity="0.35" stroke="#5B4BCE"/>
<line x1="427.2" y1="303" x2="427.2" y2="323" stroke="#5B4BCE" stroke-width="3"/>
<text x="288.0" y="355.0" font-family="Arial, sans-serif" font-size="11" fill="#17324D" text-anchor="end" font-weight="normal">GPT-5.6 Sol</text>
<line x1="357.6" y1="351" x2="535.7" y2="351" stroke="#087F72" stroke-width="2"/>
<rect x="420.1" y="343" width="50.6" height="16" fill="#087F72" fill-opacity="0.35" stroke="#087F72"/>
<line x1="444.6" y1="341" x2="444.6" y2="361" stroke="#087F72" stroke-width="3"/>
<text x="288.0" y="393.0" font-family="Arial, sans-serif" font-size="11" fill="#17324D" text-anchor="end" font-weight="normal">Gemini 3.1 Pro Preview</text>
<line x1="345.2" y1="389" x2="476.6" y2="389" stroke="#175CD3" stroke-width="2"/>
<rect x="381.7" y="381" width="40.9" height="16" fill="#175CD3" fill-opacity="0.35" stroke="#175CD3"/>
<line x1="395.9" y1="379" x2="395.9" y2="399" stroke="#175CD3" stroke-width="3"/>
<text x="288.0" y="431.0" font-family="Arial, sans-serif" font-size="11" fill="#17324D" text-anchor="end" font-weight="normal">Gemini 3.5 Flash</text>
<line x1="363.9" y1="427" x2="561.5" y2="427" stroke="#175CD3" stroke-width="2"/>
<rect x="419.4" y="419" width="50.1" height="16" fill="#175CD3" fill-opacity="0.35" stroke="#175CD3"/>
<line x1="439.0" y1="417" x2="439.0" y2="437" stroke="#175CD3" stroke-width="3"/>
<text x="288.0" y="469.0" font-family="Arial, sans-serif" font-size="11" fill="#17324D" text-anchor="end" font-weight="normal">Gemma 4 31B IT</text>
<line x1="315.8" y1="465" x2="358.3" y2="465" stroke="#175CD3" stroke-width="2"/>
<rect x="321.8" y="457" width="7.7" height="16" fill="#175CD3" fill-opacity="0.35" stroke="#175CD3"/>
<line x1="324.9" y1="455" x2="324.9" y2="475" stroke="#175CD3" stroke-width="3"/>
<text x="288.0" y="507.0" font-family="Arial, sans-serif" font-size="11" fill="#17324D" text-anchor="end" font-weight="normal">Grok 4.3</text>
<line x1="342.0" y1="503" x2="628.4" y2="503" stroke="#202124" stroke-width="2"/>
<rect x="366.0" y="495" width="41.2" height="16" fill="#202124" fill-opacity="0.35" stroke="#202124"/>
<line x1="377.0" y1="493" x2="377.0" y2="513" stroke="#202124" stroke-width="3"/>
<text x="288.0" y="545.0" font-family="Arial, sans-serif" font-size="11" fill="#17324D" text-anchor="end" font-weight="normal">Grok 4.5</text>
<line x1="324.2" y1="541" x2="568.1" y2="541" stroke="#202124" stroke-width="2"/>
<rect x="350.4" y="533" width="33.4" height="16" fill="#202124" fill-opacity="0.35" stroke="#202124"/>
<line x1="364.8" y1="531" x2="364.8" y2="551" stroke="#202124" stroke-width="3"/>
<text x="288.0" y="583.0" font-family="Arial, sans-serif" font-size="11" fill="#17324D" text-anchor="end" font-weight="normal">OpenAI GPT-4.1</text>
<line x1="319.5" y1="579" x2="391.9" y2="579" stroke="#087F72" stroke-width="2"/>
<rect x="330.6" y="571" width="20.6" height="16" fill="#087F72" fill-opacity="0.35" stroke="#087F72"/>
<line x1="339.5" y1="569" x2="339.5" y2="589" stroke="#087F72" stroke-width="3"/>
<text x="288.0" y="621.0" font-family="Arial, sans-serif" font-size="11" fill="#17324D" text-anchor="end" font-weight="normal">OpenAI o3</text>
<line x1="331.2" y1="617" x2="613.9" y2="617" stroke="#087F72" stroke-width="2"/>
<rect x="356.9" y="609" width="48.1" height="16" fill="#087F72" fill-opacity="0.35" stroke="#087F72"/>
<line x1="379.7" y1="607" x2="379.7" y2="627" stroke="#087F72" stroke-width="3"/>
<text x="1295.0" y="78.0" font-family="Arial, sans-serif" font-size="15" fill="#17324D" text-anchor="middle" font-weight="bold">Costo per risposta</text>
<line x1="970.0" y1="95" x2="970.0" y2="637" stroke="#D8E0E5"/>
<text x="970.0" y="662.0" font-family="Arial, sans-serif" font-size="10" fill="#5B6872" text-anchor="middle" font-weight="normal">$0.000</text>
<line x1="1132.5" y1="95" x2="1132.5" y2="637" stroke="#D8E0E5"/>
<text x="1132.5" y="662.0" font-family="Arial, sans-serif" font-size="10" fill="#5B6872" text-anchor="middle" font-weight="normal">$0.221</text>
<line x1="1295.0" y1="95" x2="1295.0" y2="637" stroke="#D8E0E5"/>
<text x="1295.0" y="662.0" font-family="Arial, sans-serif" font-size="10" fill="#5B6872" text-anchor="middle" font-weight="normal">$0.443</text>
<line x1="1457.5" y1="95" x2="1457.5" y2="637" stroke="#D8E0E5"/>
<text x="1457.5" y="662.0" font-family="Arial, sans-serif" font-size="10" fill="#5B6872" text-anchor="middle" font-weight="normal">$0.664</text>
<line x1="1620.0" y1="95" x2="1620.0" y2="637" stroke="#D8E0E5"/>
<text x="1620.0" y="662.0" font-family="Arial, sans-serif" font-size="10" fill="#5B6872" text-anchor="middle" font-weight="normal">$0.886</text>
<line x1="1089.6" y1="123" x2="1620.0" y2="123" stroke="#9A4D00" stroke-width="2"/>
<rect x="1170.6" y="115" width="116.3" height="16" fill="#9A4D00" fill-opacity="0.35" stroke="#9A4D00"/>
<line x1="1226.4" y1="113" x2="1226.4" y2="133" stroke="#9A4D00" stroke-width="3"/>
<line x1="978.7" y1="161" x2="995.7" y2="161" stroke="#9A4D00" stroke-width="2"/>
<rect x="981.7" y="153" width="5.8" height="16" fill="#9A4D00" fill-opacity="0.35" stroke="#9A4D00"/>
<line x1="984.3" y1="151" x2="984.3" y2="171" stroke="#9A4D00" stroke-width="3"/>
<line x1="989.2" y1="199" x2="1020.0" y2="199" stroke="#9A4D00" stroke-width="2"/>
<rect x="995.0" y="191" width="9.6" height="16" fill="#9A4D00" fill-opacity="0.35" stroke="#9A4D00"/>
<line x1="999.0" y1="189" x2="999.0" y2="209" stroke="#9A4D00" stroke-width="3"/>
<line x1="971.5" y1="237" x2="978.9" y2="237" stroke="#5B4BCE" stroke-width="2"/>
<rect x="973.5" y="229" width="2.2" height="16" fill="#5B4BCE" fill-opacity="0.35" stroke="#5B4BCE"/>
<line x1="974.4" y1="227" x2="974.4" y2="247" stroke="#5B4BCE" stroke-width="3"/>
<line x1="970.4" y1="275" x2="980.0" y2="275" stroke="#5B4BCE" stroke-width="2"/>
<rect x="970.8" y="267" width="1.0" height="16" fill="#5B4BCE" fill-opacity="0.35" stroke="#5B4BCE"/>
<line x1="971.1" y1="265" x2="971.1" y2="285" stroke="#5B4BCE" stroke-width="3"/>
<line x1="972.7" y1="313" x2="1014.5" y2="313" stroke="#5B4BCE" stroke-width="2"/>
<rect x="976.7" y="305" width="5.2" height="16" fill="#5B4BCE" fill-opacity="0.35" stroke="#5B4BCE"/>
<line x1="978.9" y1="303" x2="978.9" y2="323" stroke="#5B4BCE" stroke-width="3"/>
<line x1="1106.9" y1="351" x2="1526.9" y2="351" stroke="#087F72" stroke-width="2"/>
<rect x="1254.4" y="343" width="118.1" height="16" fill="#087F72" fill-opacity="0.35" stroke="#087F72"/>
<line x1="1312.3" y1="341" x2="1312.3" y2="361" stroke="#087F72" stroke-width="3"/>
<line x1="1013.2" y1="389" x2="1136.7" y2="389" stroke="#175CD3" stroke-width="2"/>
<rect x="1047.5" y="381" width="38.6" height="16" fill="#175CD3" fill-opacity="0.35" stroke="#175CD3"/>
<line x1="1061.2" y1="379" x2="1061.2" y2="399" stroke="#175CD3" stroke-width="3"/>
<line x1="1015.6" y1="427" x2="1154.8" y2="427" stroke="#175CD3" stroke-width="2"/>
<rect x="1054.8" y="419" width="35.3" height="16" fill="#175CD3" fill-opacity="0.35" stroke="#175CD3"/>
<line x1="1068.5" y1="417" x2="1068.5" y2="437" stroke="#175CD3" stroke-width="3"/>
<line x1="970.0" y1="465" x2="970.0" y2="465" stroke="#175CD3" stroke-width="2"/>
<rect x="970.0" y="457" width="1.0" height="16" fill="#175CD3" fill-opacity="0.35" stroke="#175CD3"/>
<line x1="970.0" y1="455" x2="970.0" y2="475" stroke="#175CD3" stroke-width="3"/>
<line x1="978.7" y1="503" x2="1034.8" y2="503" stroke="#202124" stroke-width="2"/>
<rect x="983.7" y="495" width="8.0" height="16" fill="#202124" fill-opacity="0.35" stroke="#202124"/>
<line x1="985.6" y1="493" x2="985.6" y2="513" stroke="#202124" stroke-width="3"/>
<line x1="982.4" y1="541" x2="1096.8" y2="541" stroke="#202124" stroke-width="2"/>
<rect x="994.6" y="533" width="16.0" height="16" fill="#202124" fill-opacity="0.35" stroke="#202124"/>
<line x1="1001.5" y1="531" x2="1001.5" y2="551" stroke="#202124" stroke-width="3"/>
<line x1="983.1" y1="579" x2="1028.4" y2="579" stroke="#087F72" stroke-width="2"/>
<rect x="990.3" y="571" width="12.6" height="16" fill="#087F72" fill-opacity="0.35" stroke="#087F72"/>
<line x1="995.8" y1="569" x2="995.8" y2="589" stroke="#087F72" stroke-width="3"/>
<line x1="990.3" y1="617" x2="1167.4" y2="617" stroke="#087F72" stroke-width="2"/>
<rect x="1006.9" y="609" width="29.6" height="16" fill="#087F72" fill-opacity="0.35" stroke="#087F72"/>
<line x1="1020.8" y1="607" x2="1020.8" y2="627" stroke="#087F72" stroke-width="3"/>
</svg>